<?xml version="1.0" standalone="no"?>
<!DOCTYPE svg PUBLIC "-//W3C//DTD SVG 20010904//EN"
 "http://www.w3.org/TR/2001/REC-SVG-20010904/DTD/svg10.dtd">
<svg version="1.0" xmlns="http://www.w3.org/2000/svg"
 width="576.000000pt" height="576.000000pt" viewBox="0 0 576.000000 576.000000"
 preserveAspectRatio="xMidYMid meet">
<metadata>
Created by potrace 1.11, written by Peter Selinger 2001-2013
</metadata>
<g transform="translate(0.000000,576.000000) scale(0.100000,-0.100000)"
fill="#000000" stroke="none">
<path d="M1220 2920 l0 -2080 613 0 c1081 0 1371 32 1681 187 237 118 457 307
619 534 84 117 214 378 261 524 100 309 139 631 117 955 -33 461 -154 830
-382 1166 -271 398 -610 623 -1079 717 -311 63 -544 77 -1267 77 l-563 0 0
-2080z m1445 1286 c298 -48 508 -142 672 -299 179 -172 297 -405 349 -692 26
-141 26 -528 1 -665 -80 -432 -322 -754 -642 -856 -175 -55 -270 -66 -667 -71
l-368 -5 0 1307 0 1307 278 -5 c183 -3 311 -10 377 -21z"/>
<path d="M4623 1635 c-162 -44 -290 -179 -324 -343 -53 -255 139 -507 401
-529 204 -17 401 115 462 310 63 203 -32 430 -220 526 -97 49 -218 63 -319 36z"/>
</g>
</svg>
